<?xml version="1.0" encoding="UTF-8"?><svg xmlns="http://www.w3.org/2000/svg" xmlns:xlink="http://www.w3.org/1999/xlink" fill-opacity="1" color-rendering="auto" color-interpolation="auto" text-rendering="auto" stroke="black" stroke-linecap="square" width="774" stroke-miterlimit="10" shape-rendering="auto" stroke-opacity="1" fill="black" stroke-dasharray="none" font-weight="normal" stroke-width="1" height="258" font-family="'Dialog'" font-style="normal" stroke-linejoin="miter" font-size="12px" stroke-dashoffset="0" image-rendering="auto">
  <!--Generated by ySVG 2.5-->
  <defs id="genericDefs"/>
  <g>
    <defs id="defs1">
      <clipPath clipPathUnits="userSpaceOnUse" id="clipPath1">
        <path d="M0 0 L774 0 L774 258 L0 258 L0 0 Z"/>
      </clipPath>
      <clipPath clipPathUnits="userSpaceOnUse" id="clipPath2">
        <path d="M380 425 L1154 425 L1154 683 L380 683 L380 425 Z"/>
      </clipPath>
    </defs>
    <g fill="white" text-rendering="geometricPrecision" shape-rendering="geometricPrecision" transform="translate(-380,-425)" stroke="white">
      <rect x="380" width="774" height="258" y="425" clip-path="url(#clipPath2)" stroke="none"/>
    </g>
    <g fill="rgb(204,255,255)" text-rendering="geometricPrecision" shape-rendering="geometricPrecision" transform="matrix(1,0,0,1,-380,-425)" stroke="rgb(204,255,255)">
      <rect x="713.0235" width="102.7766" height="46" y="462.4" clip-path="url(#clipPath2)" stroke="none"/>
    </g>
    <g text-rendering="geometricPrecision" stroke-miterlimit="1.45" shape-rendering="geometricPrecision" transform="matrix(1,0,0,1,-380,-425)" stroke-linecap="butt">
      <rect fill="none" x="713.0235" width="102.7766" height="46" y="462.4" clip-path="url(#clipPath2)"/>
      <text x="739.2536" xml:space="preserve" y="481.884" clip-path="url(#clipPath2)" font-family="sans-serif" stroke="none">washbox</text>
      <text x="720.0234" xml:space="preserve" y="498.2281" clip-path="url(#clipPath2)" font-family="sans-serif" stroke="none">(visible furnace)</text>
    </g>
    <g fill="rgb(204,255,255)" text-rendering="geometricPrecision" shape-rendering="geometricPrecision" transform="matrix(1,0,0,1,-380,-425)" stroke="rgb(204,255,255)">
      <rect x="501.3078" width="71.3844" height="30" y="447.4" clip-path="url(#clipPath2)" stroke="none"/>
    </g>
    <g text-rendering="geometricPrecision" stroke-miterlimit="1.45" shape-rendering="geometricPrecision" transform="matrix(1,0,0,1,-380,-425)" stroke-linecap="butt">
      <rect fill="none" x="501.3078" width="71.3844" height="30" y="447.4" clip-path="url(#clipPath2)"/>
      <text x="508.3078" xml:space="preserve" y="467.056" clip-path="url(#clipPath2)" font-family="sans-serif" stroke="none">pipe input</text>
    </g>
    <g fill="rgb(204,255,255)" text-rendering="geometricPrecision" shape-rendering="geometricPrecision" transform="matrix(1,0,0,1,-380,-425)" stroke="rgb(204,255,255)">
      <rect x="496.5378" width="80.9245" height="30" y="491.4" clip-path="url(#clipPath2)" stroke="none"/>
    </g>
    <g text-rendering="geometricPrecision" stroke-miterlimit="1.45" shape-rendering="geometricPrecision" transform="matrix(1,0,0,1,-380,-425)" stroke-linecap="butt">
      <rect fill="none" x="496.5378" width="80.9245" height="30" y="491.4" clip-path="url(#clipPath2)"/>
      <text x="503.5378" xml:space="preserve" y="511.056" clip-path="url(#clipPath2)" font-family="sans-serif" stroke="none">linked input</text>
    </g>
    <g fill="rgb(204,255,255)" text-rendering="geometricPrecision" shape-rendering="geometricPrecision" transform="matrix(1,0,0,1,-380,-425)" stroke="rgb(204,255,255)">
      <rect x="944.4305" width="79.8805" height="30" y="447.4" clip-path="url(#clipPath2)" stroke="none"/>
    </g>
    <g text-rendering="geometricPrecision" stroke-miterlimit="1.45" shape-rendering="geometricPrecision" transform="matrix(1,0,0,1,-380,-425)" stroke-linecap="butt">
      <rect fill="none" x="944.4305" width="79.8805" height="30" y="447.4" clip-path="url(#clipPath2)"/>
      <text x="951.4305" xml:space="preserve" y="467.056" clip-path="url(#clipPath2)" font-family="sans-serif" stroke="none">pipe output</text>
    </g>
    <g fill="rgb(204,255,255)" text-rendering="geometricPrecision" shape-rendering="geometricPrecision" transform="matrix(1,0,0,1,-380,-425)" stroke="rgb(204,255,255)">
      <rect x="939.6605" width="89.4205" height="30" y="491.4" clip-path="url(#clipPath2)" stroke="none"/>
    </g>
    <g text-rendering="geometricPrecision" stroke-miterlimit="1.45" shape-rendering="geometricPrecision" transform="matrix(1,0,0,1,-380,-425)" stroke-linecap="butt">
      <rect fill="none" x="939.6605" width="89.4205" height="30" y="491.4" clip-path="url(#clipPath2)"/>
      <text x="946.6605" xml:space="preserve" y="511.056" clip-path="url(#clipPath2)" font-family="sans-serif" stroke="none">linked output</text>
    </g>
    <g fill="rgb(255,255,153)" text-rendering="geometricPrecision" shape-rendering="geometricPrecision" transform="matrix(1,0,0,1,-380,-425)" stroke="rgb(255,255,153)">
      <rect x="586.7622" width="56.4203" height="30" y="564.34" clip-path="url(#clipPath2)" stroke="none"/>
    </g>
    <g text-rendering="geometricPrecision" stroke-miterlimit="1.45" shape-rendering="geometricPrecision" transform="matrix(1,0,0,1,-380,-425)" stroke-linecap="butt">
      <rect fill="none" x="586.7622" width="56.4203" height="30" y="564.34" clip-path="url(#clipPath2)"/>
      <text x="593.7622" xml:space="preserve" y="583.996" clip-path="url(#clipPath2)" font-family="sans-serif" stroke="none">valve in</text>
    </g>
    <g fill="rgb(255,255,153)" text-rendering="geometricPrecision" shape-rendering="geometricPrecision" transform="matrix(1,0,0,1,-380,-425)" stroke="rgb(255,255,153)">
      <rect x="504.6378" width="64.7244" height="30" y="564.34" clip-path="url(#clipPath2)" stroke="none"/>
    </g>
    <g text-rendering="geometricPrecision" stroke-miterlimit="1.45" shape-rendering="geometricPrecision" transform="matrix(1,0,0,1,-380,-425)" stroke-linecap="butt">
      <rect fill="none" x="504.6378" width="64.7244" height="30" y="564.34" clip-path="url(#clipPath2)"/>
      <text x="511.6378" xml:space="preserve" y="583.996" clip-path="url(#clipPath2)" font-family="sans-serif" stroke="none">linked IO</text>
    </g>
    <g fill="rgb(255,255,153)" text-rendering="geometricPrecision" shape-rendering="geometricPrecision" transform="matrix(1,0,0,1,-380,-425)" stroke="rgb(255,255,153)">
      <rect x="660.5825" width="89.4205" height="30" y="564.34" clip-path="url(#clipPath2)" stroke="none"/>
    </g>
    <g text-rendering="geometricPrecision" stroke-miterlimit="1.45" shape-rendering="geometricPrecision" transform="matrix(1,0,0,1,-380,-425)" stroke-linecap="butt">
      <rect fill="none" x="660.5825" width="89.4205" height="30" y="564.34" clip-path="url(#clipPath2)"/>
      <text x="667.5825" xml:space="preserve" y="583.996" clip-path="url(#clipPath2)" font-family="sans-serif" stroke="none">linked output</text>
    </g>
    <g fill="rgb(204,255,204)" text-rendering="geometricPrecision" shape-rendering="geometricPrecision" transform="matrix(1,0,0,1,-380,-425)" stroke="rgb(204,255,204)">
      <rect x="859.7357" width="64.9164" height="30" y="564.34" clip-path="url(#clipPath2)" stroke="none"/>
    </g>
    <g text-rendering="geometricPrecision" stroke-miterlimit="1.45" shape-rendering="geometricPrecision" transform="matrix(1,0,0,1,-380,-425)" stroke-linecap="butt">
      <rect fill="none" x="859.7357" width="64.9164" height="30" y="564.34" clip-path="url(#clipPath2)"/>
      <text x="866.7357" xml:space="preserve" y="583.996" clip-path="url(#clipPath2)" font-family="sans-serif" stroke="none">valve out</text>
    </g>
    <g fill="rgb(204,255,204)" text-rendering="geometricPrecision" shape-rendering="geometricPrecision" transform="matrix(1,0,0,1,-380,-425)" stroke="rgb(204,255,204)">
      <rect x="780.003" width="64.7244" height="30" y="564.34" clip-path="url(#clipPath2)" stroke="none"/>
    </g>
    <g text-rendering="geometricPrecision" stroke-miterlimit="1.45" shape-rendering="geometricPrecision" transform="matrix(1,0,0,1,-380,-425)" stroke-linecap="butt">
      <rect fill="none" x="780.003" width="64.7244" height="30" y="564.34" clip-path="url(#clipPath2)"/>
      <text x="787.003" xml:space="preserve" y="583.996" clip-path="url(#clipPath2)" font-family="sans-serif" stroke="none">linked IO</text>
    </g>
    <g fill="rgb(204,255,204)" text-rendering="geometricPrecision" shape-rendering="geometricPrecision" transform="matrix(1,0,0,1,-380,-425)" stroke="rgb(204,255,204)">
      <rect x="939.6605" width="89.4205" height="30" y="564.34" clip-path="url(#clipPath2)" stroke="none"/>
    </g>
    <g text-rendering="geometricPrecision" stroke-miterlimit="1.45" shape-rendering="geometricPrecision" transform="matrix(1,0,0,1,-380,-425)" stroke-linecap="butt">
      <rect fill="none" x="939.6605" width="89.4205" height="30" y="564.34" clip-path="url(#clipPath2)"/>
      <text x="946.6605" xml:space="preserve" y="583.996" clip-path="url(#clipPath2)" font-family="sans-serif" stroke="none">linked output</text>
    </g>
    <g fill="rgb(204,153,255)" text-rendering="geometricPrecision" shape-rendering="geometricPrecision" transform="matrix(1,0,0,1,-380,-425)" stroke="rgb(204,153,255)">
      <rect x="698.9834" width="130.8568" height="30" y="637.28" clip-path="url(#clipPath2)" stroke="none"/>
    </g>
    <g text-rendering="geometricPrecision" stroke-miterlimit="1.45" shape-rendering="geometricPrecision" transform="matrix(1,0,0,1,-380,-425)" stroke-linecap="butt">
      <rect fill="none" x="698.9834" width="130.8568" height="30" y="637.28" clip-path="url(#clipPath2)"/>
      <text x="705.9833" xml:space="preserve" y="656.936" clip-path="url(#clipPath2)" font-family="sans-serif" stroke="none">pump speed furnace</text>
    </g>
    <g fill="rgb(204,153,255)" text-rendering="geometricPrecision" shape-rendering="geometricPrecision" transform="matrix(1,0,0,1,-380,-425)" stroke="rgb(204,153,255)">
      <rect x="591.6461" width="80.9245" height="30" y="637.28" clip-path="url(#clipPath2)" stroke="none"/>
    </g>
    <g text-rendering="geometricPrecision" stroke-miterlimit="1.45" shape-rendering="geometricPrecision" transform="matrix(1,0,0,1,-380,-425)" stroke-linecap="butt">
      <rect fill="none" x="591.6461" width="80.9245" height="30" y="637.28" clip-path="url(#clipPath2)"/>
      <text x="598.6461" xml:space="preserve" y="656.936" clip-path="url(#clipPath2)" font-family="sans-serif" stroke="none">linked input</text>
    </g>
    <g fill="rgb(204,153,255)" text-rendering="geometricPrecision" shape-rendering="geometricPrecision" transform="matrix(1,0,0,1,-380,-425)" stroke="rgb(204,153,255)">
      <rect x="856.2529" width="89.4205" height="30" y="637.28" clip-path="url(#clipPath2)" stroke="none"/>
    </g>
    <g text-rendering="geometricPrecision" stroke-miterlimit="1.45" shape-rendering="geometricPrecision" transform="matrix(1,0,0,1,-380,-425)" stroke-linecap="butt">
      <rect fill="none" x="856.2529" width="89.4205" height="30" y="637.28" clip-path="url(#clipPath2)"/>
      <text x="863.2529" xml:space="preserve" y="656.936" clip-path="url(#clipPath2)" font-family="sans-serif" stroke="none">linked output</text>
    </g>
    <g fill="rgb(255,170,170)" text-rendering="geometricPrecision" shape-rendering="geometricPrecision" transform="matrix(1,0,0,1,-380,-425)" stroke="rgb(255,170,170)">
      <rect x="395.1534" width="71.3844" height="30" y="447.4" clip-path="url(#clipPath2)" stroke="none"/>
    </g>
    <g text-rendering="geometricPrecision" stroke-miterlimit="1.45" shape-rendering="geometricPrecision" transform="matrix(1,0,0,1,-380,-425)" stroke-linecap="butt">
      <rect fill="none" x="395.1534" width="71.3844" height="30" y="447.4" clip-path="url(#clipPath2)"/>
      <text x="402.1534" xml:space="preserve" y="467.056" clip-path="url(#clipPath2)" font-family="sans-serif" stroke="none">input pipe</text>
    </g>
    <g fill="rgb(255,170,170)" text-rendering="geometricPrecision" shape-rendering="geometricPrecision" transform="matrix(1,0,0,1,-380,-425)" stroke="rgb(255,170,170)">
      <rect x="1059.081" width="79.8805" height="30" y="447.4" clip-path="url(#clipPath2)" stroke="none"/>
    </g>
    <g text-rendering="geometricPrecision" stroke-miterlimit="1.45" shape-rendering="geometricPrecision" transform="matrix(1,0,0,1,-380,-425)" stroke-linecap="butt">
      <rect fill="none" x="1059.081" width="79.8805" height="30" y="447.4" clip-path="url(#clipPath2)"/>
      <text x="1066.0811" xml:space="preserve" y="467.056" clip-path="url(#clipPath2)" font-family="sans-serif" stroke="none">output pipe</text>
      <path fill="none" d="M572.6922 466.0099 L705.0641 479.3977" clip-path="url(#clipPath2)"/>
      <path d="M713.0235 480.2027 L701.5875 474.0205 L704.0692 479.2971 L700.5813 483.9698 Z" clip-path="url(#clipPath2)" stroke="none"/>
      <text x="584.8172" xml:space="preserve" y="459.5179" clip-path="url(#clipPath2)" font-family="sans-serif" stroke="none"> </text>
    </g>
    <g text-rendering="geometricPrecision" stroke-miterlimit="1.45" shape-rendering="geometricPrecision" transform="matrix(1,0,0,1,-380,-425)" stroke-linecap="butt">
      <path fill="none" d="M535.5 477.4 L535.5 491.4 L538.5 491.4 L538.5 477.4 Z" clip-path="url(#clipPath2)"/>
    </g>
    <g text-rendering="geometricPrecision" stroke-miterlimit="1.45" shape-rendering="geometricPrecision" transform="matrix(1,0,0,1,-380,-425)" stroke-linecap="butt">
      <path fill="none" d="M577.4622 502.6636 L705.0574 490.881" clip-path="url(#clipPath2)"/>
      <path d="M713.0235 490.1454 L700.6146 486.27 L704.0616 490.9729 L701.5341 496.2276 Z" clip-path="url(#clipPath2)" stroke="none"/>
      <text x="589.5872" xml:space="preserve" y="493.5551" clip-path="url(#clipPath2)" font-family="sans-serif" stroke="none"> </text>
      <path fill="none" d="M815.8 480.0266 L936.4739 467.4083" clip-path="url(#clipPath2)"/>
      <path d="M944.4305 466.5764 L931.9756 462.8514 L935.4793 467.5123 L933.0155 472.7972 Z" clip-path="url(#clipPath2)" stroke="none"/>
      <text x="827.925" xml:space="preserve" y="470.7073" clip-path="url(#clipPath2)" font-family="sans-serif" stroke="none"> </text>
    </g>
    <g text-rendering="geometricPrecision" stroke-miterlimit="1.45" shape-rendering="geometricPrecision" transform="matrix(1,0,0,1,-380,-425)" stroke-linecap="butt">
      <path fill="none" d="M982.8707 477.4 L982.8707 491.4 L985.8707 491.4 L985.8707 477.4 Z" clip-path="url(#clipPath2)"/>
    </g>
    <g text-rendering="geometricPrecision" stroke-miterlimit="1.45" shape-rendering="geometricPrecision" transform="matrix(1,0,0,1,-380,-425)" stroke-linecap="butt">
      <path fill="none" d="M815.8 490.3062 L931.6967 501.3711" clip-path="url(#clipPath2)"/>
      <path d="M939.6605 502.1314 L928.19 496.0136 L930.7012 501.2761 L927.2396 505.9683 Z" clip-path="url(#clipPath2)" stroke="none"/>
      <text x="827.925" xml:space="preserve" y="483.7568" clip-path="url(#clipPath2)" font-family="sans-serif" stroke="none"> </text>
      <path fill="none" d="M537 521.4 L537 564.34" clip-path="url(#clipPath2)"/>
      <text x="539" xml:space="preserve" y="545.5261" clip-path="url(#clipPath2)" font-family="sans-serif" stroke="none"> </text>
      <path fill="none" d="M569.3622 579.34 L578.7622 579.34" clip-path="url(#clipPath2)"/>
      <path d="M586.7622 579.34 L574.7622 574.34 L577.7622 579.34 L574.7622 584.34 Z" clip-path="url(#clipPath2)" stroke="none"/>
      <text x="576.5022" xml:space="preserve" y="592.1681" clip-path="url(#clipPath2)" font-family="sans-serif" stroke="none"> </text>
      <path fill="none" d="M643.1825 579.34 L652.5825 579.34" clip-path="url(#clipPath2)"/>
      <path d="M660.5825 579.34 L648.5825 574.34 L651.5825 579.34 L648.5825 584.34 Z" clip-path="url(#clipPath2)" stroke="none"/>
      <text x="650.3224" xml:space="preserve" y="592.1681" clip-path="url(#clipPath2)" font-family="sans-serif" stroke="none"> </text>
      <path fill="none" d="M844.7274 579.34 L851.7357 579.34" clip-path="url(#clipPath2)"/>
      <path d="M859.7357 579.34 L847.7357 574.34 L850.7357 579.34 L847.7357 584.34 Z" clip-path="url(#clipPath2)" stroke="none"/>
      <text x="850.6716" xml:space="preserve" y="592.1681" clip-path="url(#clipPath2)" font-family="sans-serif" stroke="none"> </text>
      <path fill="none" d="M924.6521 579.34 L931.6605 579.34" clip-path="url(#clipPath2)"/>
      <path d="M939.6605 579.34 L927.6605 574.34 L930.6605 579.34 L927.6605 584.34 Z" clip-path="url(#clipPath2)" stroke="none"/>
      <text x="930.5963" xml:space="preserve" y="592.1681" clip-path="url(#clipPath2)" font-family="sans-serif" stroke="none"> </text>
      <path fill="none" d="M984.3707 564.34 L984.3707 521.4" clip-path="url(#clipPath2)"/>
      <text x="979.2507" xml:space="preserve" y="545.5261" clip-path="url(#clipPath2)" font-family="sans-serif" stroke="none"> </text>
    </g>
    <g stroke-linecap="round" transform="matrix(1,0,0,1,-380,-425)" stroke-dashoffset="2" text-rendering="geometricPrecision" shape-rendering="geometricPrecision" stroke-dasharray="0,8" stroke-width="2" stroke-miterlimit="1.45">
      <path fill="none" d="M764.4117 637.28 L764.4117 508.4" clip-path="url(#clipPath2)"/>
    </g>
    <g text-rendering="geometricPrecision" stroke-miterlimit="1.45" shape-rendering="geometricPrecision" font-family="sans-serif" transform="matrix(1,0,0,1,-380,-425)" stroke-linecap="butt">
      <text x="759.2917" xml:space="preserve" y="619.639" clip-path="url(#clipPath2)" stroke="none"> </text>
      <path fill="none" d="M672.5706 652.28 L690.9833 652.28" clip-path="url(#clipPath2)"/>
      <path d="M698.9833 652.28 L686.9833 647.28 L689.9833 652.28 L686.9833 657.28 Z" clip-path="url(#clipPath2)" stroke="none"/>
      <text x="684.217" xml:space="preserve" y="644.764" clip-path="url(#clipPath2)" stroke="none"> </text>
      <path fill="none" d="M647.1586 637.28 L690.2425 594.34" clip-path="url(#clipPath2)"/>
      <text x="667.1406" xml:space="preserve" y="604.7458" clip-path="url(#clipPath2)" stroke="none"> </text>
      <path fill="none" d="M829.8402 652.28 L848.2529 652.28" clip-path="url(#clipPath2)"/>
      <path d="M856.2529 652.28 L844.2529 647.28 L847.2529 652.28 L844.2529 657.28 Z" clip-path="url(#clipPath2)" stroke="none"/>
      <text x="841.4866" xml:space="preserve" y="644.764" clip-path="url(#clipPath2)" stroke="none"> </text>
      <path fill="none" d="M830.5852 594.34 L882.7432 637.28" clip-path="url(#clipPath2)"/>
      <text x="855.1042" xml:space="preserve" y="605.3631" clip-path="url(#clipPath2)" stroke="none"> </text>
      <path fill="none" d="M466.5378 462.4 L493.3078 462.4" clip-path="url(#clipPath2)"/>
      <path d="M501.3078 462.4 L489.3078 457.4 L492.3078 462.4 L489.3078 467.4 Z" clip-path="url(#clipPath2)" stroke="none"/>
      <text x="478.6628" xml:space="preserve" y="454.884" clip-path="url(#clipPath2)" stroke="none"> </text>
      <path fill="none" d="M1024.3109 462.4 L1051.0811 462.4" clip-path="url(#clipPath2)"/>
      <path d="M1059.0811 462.4 L1047.0811 457.4 L1050.0811 462.4 L1047.0811 467.4 Z" clip-path="url(#clipPath2)" stroke="none"/>
      <text x="1036.4359" xml:space="preserve" y="454.884" clip-path="url(#clipPath2)" stroke="none"> </text>
    </g>
  </g>
</svg>
